<mxfile host="Electron" modified="2023-11-23T11:17:09.218Z" agent="Mozilla/5.0 (Windows NT 10.0; Win64; x64) AppleWebKit/537.36 (KHTML, like Gecko) draw.io/22.0.0 Chrome/114.0.5735.289 Electron/25.8.3 Safari/537.36" etag="7mnFSYv8iTZZCtQr7TQs" version="22.0.0" type="device">
  <diagram name="Page-1" id="Qyrx4Hr9uOGXmtohW89R">
    <mxGraphModel dx="1674" dy="844" grid="0" gridSize="10" guides="1" tooltips="1" connect="1" arrows="1" fold="1" page="0" pageScale="1" pageWidth="827" pageHeight="1169" math="0" shadow="0">
      <root>
        <mxCell id="0" />
        <mxCell id="1" parent="0" />
        <mxCell id="6bMfCU0XXLAoPFFb1n3Q-5" value="Enemies" style="swimlane;fontStyle=1;align=center;verticalAlign=top;childLayout=stackLayout;horizontal=1;startSize=26;horizontalStack=0;resizeParent=1;resizeParentMax=0;resizeLast=0;collapsible=1;marginBottom=0;whiteSpace=wrap;html=1;" parent="1" vertex="1">
          <mxGeometry x="350" y="90" width="180" height="350" as="geometry" />
        </mxCell>
        <mxCell id="6bMfCU0XXLAoPFFb1n3Q-6" value="+enemyHealth: Integer&lt;br&gt;+enemyDamage: Integer&lt;br&gt;+enemySpeed: Integer&lt;br&gt;+enemyType: String&lt;br&gt;+enemyNumber: Integer&lt;br&gt;+enemyCoinDrop: Float&lt;br&gt;+detectionRange: Float" style="text;strokeColor=none;fillColor=none;align=left;verticalAlign=top;spacingLeft=4;spacingRight=4;overflow=hidden;rotatable=0;points=[[0,0.5],[1,0.5]];portConstraint=eastwest;whiteSpace=wrap;html=1;" parent="6bMfCU0XXLAoPFFb1n3Q-5" vertex="1">
          <mxGeometry y="26" width="180" height="104" as="geometry" />
        </mxCell>
        <mxCell id="6bMfCU0XXLAoPFFb1n3Q-7" value="" style="line;strokeWidth=1;fillColor=none;align=left;verticalAlign=middle;spacingTop=-1;spacingLeft=3;spacingRight=3;rotatable=0;labelPosition=right;points=[];portConstraint=eastwest;strokeColor=inherit;" parent="6bMfCU0XXLAoPFFb1n3Q-5" vertex="1">
          <mxGeometry y="130" width="180" height="8" as="geometry" />
        </mxCell>
        <mxCell id="6bMfCU0XXLAoPFFb1n3Q-8" value="+GetEnemyHealth():&lt;br&gt;+SetEnemyHealth():&lt;br&gt;+GetEnemyDamage():&lt;br&gt;+SetEnemyDamage():&lt;br&gt;+GetEnemySpeed():&lt;br&gt;+SetEnemySpeed():&lt;br&gt;+GetEnemyType():&lt;br&gt;+SetEnemyType():&lt;br&gt;+GetEnemyNumber():&lt;br&gt;+SetEnemyNumber():&lt;br&gt;+GetEnemyCoinDrop():&lt;br&gt;+SetEnemyCoinDrop():&lt;br&gt;+GetDetectionRange():&lt;br&gt;+SetDetectionRange():" style="text;strokeColor=none;fillColor=none;align=left;verticalAlign=top;spacingLeft=4;spacingRight=4;overflow=hidden;rotatable=0;points=[[0,0.5],[1,0.5]];portConstraint=eastwest;whiteSpace=wrap;html=1;" parent="6bMfCU0XXLAoPFFb1n3Q-5" vertex="1">
          <mxGeometry y="138" width="180" height="212" as="geometry" />
        </mxCell>
        <mxCell id="4n2Y114-G4qFqDkN0_JY-2" value="Melee Enemy" style="swimlane;fontStyle=1;align=center;verticalAlign=top;childLayout=stackLayout;horizontal=1;startSize=26;horizontalStack=0;resizeParent=1;resizeParentMax=0;resizeLast=0;collapsible=1;marginBottom=0;whiteSpace=wrap;html=1;" parent="1" vertex="1">
          <mxGeometry x="100" y="30" width="190" height="260" as="geometry" />
        </mxCell>
        <mxCell id="4n2Y114-G4qFqDkN0_JY-3" value="+enemyHealth: Integer&lt;br&gt;+enemyDamage: Integet&lt;br&gt;+enemySpeed: Integer&lt;br&gt;+DetectionRange: Float" style="text;strokeColor=none;fillColor=none;align=left;verticalAlign=top;spacingLeft=4;spacingRight=4;overflow=hidden;rotatable=0;points=[[0,0.5],[1,0.5]];portConstraint=eastwest;whiteSpace=wrap;html=1;" parent="4n2Y114-G4qFqDkN0_JY-2" vertex="1">
          <mxGeometry y="26" width="190" height="64" as="geometry" />
        </mxCell>
        <mxCell id="4n2Y114-G4qFqDkN0_JY-4" value="" style="line;strokeWidth=1;fillColor=none;align=left;verticalAlign=middle;spacingTop=-1;spacingLeft=3;spacingRight=3;rotatable=0;labelPosition=right;points=[];portConstraint=eastwest;strokeColor=inherit;" parent="4n2Y114-G4qFqDkN0_JY-2" vertex="1">
          <mxGeometry y="90" width="190" height="8" as="geometry" />
        </mxCell>
        <mxCell id="4n2Y114-G4qFqDkN0_JY-5" value="+AttackPlayer(enemyDamage, DetectionRange):&lt;br&gt;+EnemyDeath(enemyHealth, enemyCoinDrop):&lt;br&gt;+SpawnEnemy(enemyNumber)&lt;br&gt;+EnemyPathfinding(enemySpeed):&lt;br&gt;" style="text;strokeColor=none;fillColor=none;align=left;verticalAlign=top;spacingLeft=4;spacingRight=4;overflow=hidden;rotatable=0;points=[[0,0.5],[1,0.5]];portConstraint=eastwest;whiteSpace=wrap;html=1;" parent="4n2Y114-G4qFqDkN0_JY-2" vertex="1">
          <mxGeometry y="98" width="190" height="162" as="geometry" />
        </mxCell>
        <mxCell id="4n2Y114-G4qFqDkN0_JY-22" style="edgeStyle=orthogonalEdgeStyle;rounded=0;orthogonalLoop=1;jettySize=auto;html=1;" parent="1" source="4n2Y114-G4qFqDkN0_JY-3" target="6bMfCU0XXLAoPFFb1n3Q-6" edge="1">
          <mxGeometry relative="1" as="geometry" />
        </mxCell>
        <mxCell id="lJMAodBjfruFmY7q2Bf_-1" value="Ranged Enemy" style="swimlane;fontStyle=1;align=center;verticalAlign=top;childLayout=stackLayout;horizontal=1;startSize=26;horizontalStack=0;resizeParent=1;resizeParentMax=0;resizeLast=0;collapsible=1;marginBottom=0;whiteSpace=wrap;html=1;" vertex="1" parent="1">
          <mxGeometry x="100" y="310" width="190" height="260" as="geometry" />
        </mxCell>
        <mxCell id="lJMAodBjfruFmY7q2Bf_-2" value="+enemyHealth: Integer&lt;br&gt;+enemyDamage: Integet&lt;br&gt;+enemySpeed: Integer&lt;br&gt;+DetectionRange: Float" style="text;strokeColor=none;fillColor=none;align=left;verticalAlign=top;spacingLeft=4;spacingRight=4;overflow=hidden;rotatable=0;points=[[0,0.5],[1,0.5]];portConstraint=eastwest;whiteSpace=wrap;html=1;" vertex="1" parent="lJMAodBjfruFmY7q2Bf_-1">
          <mxGeometry y="26" width="190" height="64" as="geometry" />
        </mxCell>
        <mxCell id="lJMAodBjfruFmY7q2Bf_-3" value="" style="line;strokeWidth=1;fillColor=none;align=left;verticalAlign=middle;spacingTop=-1;spacingLeft=3;spacingRight=3;rotatable=0;labelPosition=right;points=[];portConstraint=eastwest;strokeColor=inherit;" vertex="1" parent="lJMAodBjfruFmY7q2Bf_-1">
          <mxGeometry y="90" width="190" height="8" as="geometry" />
        </mxCell>
        <mxCell id="lJMAodBjfruFmY7q2Bf_-4" value="+AttackPlayer(enemyDamage, DetectionRange):&lt;br&gt;+EnemyDeath(enemyHealth, enemyCoinDrop):&lt;br&gt;+SpawnEnemy(enemyNumber)&lt;br&gt;+EnemyPathfinding(enemySpeed)" style="text;strokeColor=none;fillColor=none;align=left;verticalAlign=top;spacingLeft=4;spacingRight=4;overflow=hidden;rotatable=0;points=[[0,0.5],[1,0.5]];portConstraint=eastwest;whiteSpace=wrap;html=1;" vertex="1" parent="lJMAodBjfruFmY7q2Bf_-1">
          <mxGeometry y="98" width="190" height="162" as="geometry" />
        </mxCell>
        <mxCell id="lJMAodBjfruFmY7q2Bf_-5" value="Tank Enemy" style="swimlane;fontStyle=1;align=center;verticalAlign=top;childLayout=stackLayout;horizontal=1;startSize=26;horizontalStack=0;resizeParent=1;resizeParentMax=0;resizeLast=0;collapsible=1;marginBottom=0;whiteSpace=wrap;html=1;" vertex="1" parent="1">
          <mxGeometry x="590" y="30" width="190" height="260" as="geometry" />
        </mxCell>
        <mxCell id="lJMAodBjfruFmY7q2Bf_-6" value="+enemyHealth: Integer&lt;br&gt;+enemyDamage: Integet&lt;br&gt;+enemySpeed: Integer&lt;br&gt;+DetectionRange: Float" style="text;strokeColor=none;fillColor=none;align=left;verticalAlign=top;spacingLeft=4;spacingRight=4;overflow=hidden;rotatable=0;points=[[0,0.5],[1,0.5]];portConstraint=eastwest;whiteSpace=wrap;html=1;" vertex="1" parent="lJMAodBjfruFmY7q2Bf_-5">
          <mxGeometry y="26" width="190" height="64" as="geometry" />
        </mxCell>
        <mxCell id="lJMAodBjfruFmY7q2Bf_-7" value="" style="line;strokeWidth=1;fillColor=none;align=left;verticalAlign=middle;spacingTop=-1;spacingLeft=3;spacingRight=3;rotatable=0;labelPosition=right;points=[];portConstraint=eastwest;strokeColor=inherit;" vertex="1" parent="lJMAodBjfruFmY7q2Bf_-5">
          <mxGeometry y="90" width="190" height="8" as="geometry" />
        </mxCell>
        <mxCell id="lJMAodBjfruFmY7q2Bf_-8" value="+AttackPlayer(enemyDamage, DetectionRange):&lt;br&gt;+EnemyDeath(enemyHealth, enemyCoinDrop):&lt;br&gt;+SpawnEnemy(enemyNumber):&lt;br&gt;+EnemyPathfinding(enemySpeed)" style="text;strokeColor=none;fillColor=none;align=left;verticalAlign=top;spacingLeft=4;spacingRight=4;overflow=hidden;rotatable=0;points=[[0,0.5],[1,0.5]];portConstraint=eastwest;whiteSpace=wrap;html=1;" vertex="1" parent="lJMAodBjfruFmY7q2Bf_-5">
          <mxGeometry y="98" width="190" height="162" as="geometry" />
        </mxCell>
        <mxCell id="lJMAodBjfruFmY7q2Bf_-9" value="Healer Enemy" style="swimlane;fontStyle=1;align=center;verticalAlign=top;childLayout=stackLayout;horizontal=1;startSize=26;horizontalStack=0;resizeParent=1;resizeParentMax=0;resizeLast=0;collapsible=1;marginBottom=0;whiteSpace=wrap;html=1;" vertex="1" parent="1">
          <mxGeometry x="590" y="310" width="190" height="270" as="geometry" />
        </mxCell>
        <mxCell id="lJMAodBjfruFmY7q2Bf_-10" value="+enemyHealth: Integer&lt;br&gt;+enemyDamage: Integer&lt;br&gt;+enemySpeed: Integer&lt;br&gt;+DetectionRange: Float&lt;br&gt;+HealAmount: integer" style="text;strokeColor=none;fillColor=none;align=left;verticalAlign=top;spacingLeft=4;spacingRight=4;overflow=hidden;rotatable=0;points=[[0,0.5],[1,0.5]];portConstraint=eastwest;whiteSpace=wrap;html=1;" vertex="1" parent="lJMAodBjfruFmY7q2Bf_-9">
          <mxGeometry y="26" width="190" height="74" as="geometry" />
        </mxCell>
        <mxCell id="lJMAodBjfruFmY7q2Bf_-11" value="" style="line;strokeWidth=1;fillColor=none;align=left;verticalAlign=middle;spacingTop=-1;spacingLeft=3;spacingRight=3;rotatable=0;labelPosition=right;points=[];portConstraint=eastwest;strokeColor=inherit;" vertex="1" parent="lJMAodBjfruFmY7q2Bf_-9">
          <mxGeometry y="100" width="190" height="8" as="geometry" />
        </mxCell>
        <mxCell id="lJMAodBjfruFmY7q2Bf_-12" value="+AttackPlayer(enemyDamage, DetectionRange):&lt;br&gt;+HealEnemy(enemyHealth, DetectionRange):&lt;br&gt;+EnemyDeath(enemyHealth, enemyCoinDrop):&lt;br&gt;+SpawnEnemy(enemyNumber)&lt;br&gt;+EnemyPathfinding(enemySpeed)" style="text;strokeColor=none;fillColor=none;align=left;verticalAlign=top;spacingLeft=4;spacingRight=4;overflow=hidden;rotatable=0;points=[[0,0.5],[1,0.5]];portConstraint=eastwest;whiteSpace=wrap;html=1;" vertex="1" parent="lJMAodBjfruFmY7q2Bf_-9">
          <mxGeometry y="108" width="190" height="162" as="geometry" />
        </mxCell>
        <mxCell id="lJMAodBjfruFmY7q2Bf_-13" style="edgeStyle=orthogonalEdgeStyle;rounded=0;orthogonalLoop=1;jettySize=auto;html=1;entryX=-0.017;entryY=0.453;entryDx=0;entryDy=0;entryPerimeter=0;" edge="1" parent="1" source="lJMAodBjfruFmY7q2Bf_-2" target="6bMfCU0XXLAoPFFb1n3Q-8">
          <mxGeometry relative="1" as="geometry" />
        </mxCell>
        <mxCell id="lJMAodBjfruFmY7q2Bf_-14" style="edgeStyle=orthogonalEdgeStyle;rounded=0;orthogonalLoop=1;jettySize=auto;html=1;entryX=1;entryY=0.5;entryDx=0;entryDy=0;" edge="1" parent="1" source="lJMAodBjfruFmY7q2Bf_-8" target="6bMfCU0XXLAoPFFb1n3Q-6">
          <mxGeometry relative="1" as="geometry" />
        </mxCell>
        <mxCell id="lJMAodBjfruFmY7q2Bf_-17" style="edgeStyle=orthogonalEdgeStyle;rounded=0;orthogonalLoop=1;jettySize=auto;html=1;entryX=1.006;entryY=0.434;entryDx=0;entryDy=0;entryPerimeter=0;" edge="1" parent="1" source="lJMAodBjfruFmY7q2Bf_-10" target="6bMfCU0XXLAoPFFb1n3Q-8">
          <mxGeometry relative="1" as="geometry" />
        </mxCell>
      </root>
    </mxGraphModel>
  </diagram>
</mxfile>
